#N canvas 435 195 501 322 12;
#X obj 68 199 dac~;
#X obj 67 87 udpreceive 9998;
#X obj 67 112 unpackOSC;
#X obj 67 137 routeOSC /some/address;
#X obj 67 162 osc~;
#X obj 253 157 hsl 128 15 0 1000 0 0 empty empty empty -2 -8 0 10 -4034
-1 -1 419 1;
#X floatatom 250 177 5 0 0 0 - - -;
#X text 65 14 Run osc_test.py Requires mrpeach external for pd Requires
python-osc library -> pip install python-osc;
#X connect 1 0 2 0;
#X connect 2 0 3 0;
#X connect 3 0 4 0;
#X connect 3 0 5 0;
#X connect 4 0 0 0;
#X connect 4 0 0 1;
#X connect 5 0 6 0;
